<svg xmlns="http://www.w3.org/2000/svg" viewBox="0 0 32 32" fill="none">
  <rect x="4" y="7" width="24" height="18" rx="3" fill="#0d6efd"/>
  <path d="M6 11h10M6 15h14M6 19h10" stroke="#ffffff" stroke-width="1.7" stroke-linecap="round"/>
  <path d="M28 11c-3.8 0-6 .95-6 3v8c0-2.05 2.2-3 6-3" fill="#0b5ed7"/>
  <circle cx="21.5" cy="14.5" r="5.5" fill="rgba(255,255,255,0.85)"/>
  <circle cx="21.5" cy="14.5" r="5.5" stroke="rgba(13,110,253,0.65)" stroke-width="1.2"/>
  <circle cx="19.6" cy="14" r="0.8" fill="#0d6efd"/>
  <circle cx="23.4" cy="14" r="0.8" fill="#0d6efd"/>
  <path d="M19.4 15.9c.5.6 1.2.9 2.1.9s1.6-.3 2.1-.9" stroke="#0d6efd" stroke-width="1.1" stroke-linecap="round"/>
  <path d="M16.2 10.8h1.6c.4 0 .8.3.8.8v1.6" stroke="#0d6efd" stroke-width="1.1" stroke-linecap="round"/>
  <path d="M26.4 10.8h-1.6c-.4 0-.8.3-.8.8v1.6" stroke="#0d6efd" stroke-width="1.1" stroke-linecap="round"/>
  <path d="M16.2 18.2h1.6c.4 0 .8-.3.8-.8v-1.6" stroke="#0d6efd" stroke-width="1.1" stroke-linecap="round"/>
  <path d="M26.4 18.2h-1.6c-.4 0-.8-.3-.8-.8v-1.6" stroke="#0d6efd" stroke-width="1.1" stroke-linecap="round"/>
  <path d="M17 14.5h9" stroke="rgba(13,110,253,0.45)" stroke-width="1" stroke-linecap="round"/>
  <path d="M18 12.8h7" stroke="rgba(13,110,253,0.25)" stroke-width="1" stroke-linecap="round"/>
  <path d="M18 16.2h7" stroke="rgba(13,110,253,0.25)" stroke-width="1" stroke-linecap="round"/>
</svg>

